<svg xmlns="http://www.w3.org/2000/svg" width="126.687" height="84.457" viewBox="0 0 126.687 84.457"><g transform="translate(-157.958 -183.034)"><path d="M.018,1.295c.065.218.3.36.628.434a10.663,10.663,0,0,0,1.988.2.59.59,0,0,0,.334-.053.607.607,0,0,0,.207-.484.327.327,0,0,0-.011-.163.249.249,0,0,0-.09-.1,1.488,1.488,0,0,0-.7-.15A.7.7,0,0,1,1.88.732C1.783.6,1.852.256,1.75.209A3.168,3.168,0,0,0,.479,0,.112.112,0,0,0,.418.01.118.118,0,0,0,.377.1,1.978,1.978,0,0,1,.122.8a.622.622,0,0,0-.1.5" transform="translate(175.162 259.655) rotate(-3)"/><path d="M1.991.012A.771.771,0,0,0,1.3.338,10.81,10.81,0,0,0,.124,1.964.6.6,0,0,0,0,2.28c0,.183.164.317.31.425a.321.321,0,0,0,.145.073A.247.247,0,0,0,.586,2.75c.219-.1.337-.338.482-.532a.7.7,0,0,1,.462-.3c.163-.017.422.217.514.152a3.211,3.211,0,0,0,.821-1,.114.114,0,0,0,.022-.059.118.118,0,0,0-.054-.08A1.963,1.963,0,0,1,2.365.355.616.616,0,0,0,1.991.012" transform="translate(157.958 243.133) rotate(-3)"/><path d="M8.758,4.531l-.022.022c-.852.871-1.7,1.759-2.5,2.685a.734.734,0,0,0-.2.341q-1.177-1.206-2.371-2.4Q3.076,4.59,2.475,4c-.3-.3-.562-.814-.955-.429L.209,4.852A.575.575,0,0,0,0,5.181a.57.57,0,0,0,.138.358,30.951,30.951,0,0,0,3.995,4.731c.8.771,1.836,1.326,2.885.71A103.175,103.175,0,0,0,15.808,5.2a1.692,1.692,0,0,0,.523-.518,1.722,1.722,0,0,0,.152-.718,2.482,2.482,0,0,0-.388-1.88,2.416,2.416,0,0,0-.959-.543L13.056.751c-.48-.181-.9-.562-1.379-.722s-.885.351-1.056.747a8.441,8.441,0,0,0-.339,1.367A5.123,5.123,0,0,1,8.758,4.531" transform="translate(159.487 240.206) rotate(-3)" fill="#3b3b3b"/><path d="M6.685,9.784a22.047,22.047,0,0,1-.774,3.28L3.539,21.233l-2.273-.467q.577-5.6,1.489-11.165a2.161,2.161,0,0,0,.028-.83,2.222,2.222,0,0,0-.344-.689C.926,5.747-.265,3.016.051.246.1-.2,3.92.084,4.314.139c.976.137,1.844.3,2.145,1.343A17.4,17.4,0,0,1,6.645,5a24.7,24.7,0,0,1,.04,4.782" transform="translate(172.915 239.13) rotate(-3)" fill="#3b3b3b"/><path d="M10.557,1.422a.408.408,0,0,1,.281.141.376.376,0,0,1,.028.245q-.066.565-.18,1.124-4.7-.384-9.423-.4a1.376,1.376,0,0,1-.586-.087A.993.993,0,0,1,.306,2.1,1.615,1.615,0,0,1,.253.3C.633-.22,1.579.084,2.122.14q2.7.278,5.383.722,1.531.253,3.051.561" transform="translate(263.339 196.495) rotate(-3)" fill="#a7d7cb"/><path d="M.607,1.823a2.64,2.64,0,0,1-.285.621A4.133,4.133,0,0,0,.062,3.1a.659.659,0,0,0,0,.561.451.451,0,0,0,.192.151.92.92,0,0,0,.849-.107,2.464,2.464,0,0,0,.619-.638,2.4,2.4,0,0,0,.6-1.371.342.342,0,0,0-.122-.3,1.365,1.365,0,0,0-.248-.065C1.756,1.255,1.72,1,1.685.79A2.3,2.3,0,0,0,1.453.1.167.167,0,0,0,1.36,0,.17.17,0,0,0,1.27.014C.956.115.463.139.408.5c-.066.434.343.86.2,1.321" transform="translate(268.987 229.172) rotate(-3)" fill="#002d51"/><path d="M.11,1.372a1.555,1.555,0,0,0,.135.922.766.766,0,0,0,.727.269,1.807,1.807,0,0,0,.739-.326A6.042,6.042,0,0,0,3.095.958.688.688,0,0,0,3.3.339.561.561,0,0,0,2.856.027a1.256,1.256,0,0,0-.78.094,3.755,3.755,0,0,1-.5.25.429.429,0,0,1-.5-.142A.606.606,0,0,0,.09.293c-.213.283.02.751.02,1.08" transform="translate(276.901 213.791) rotate(-3)" fill="#002d51"/><path d="M12.193.617Q12.7.418,13.2.2a1.623,1.623,0,0,1,2.214.563A9.949,9.949,0,0,1,16.21,4.44c.106,1.232.211,2.465.22,3.7l-1.337.393a.289.289,0,0,1-.436-.161C14.268,7.593,13.891,6.8,13.546,6c-.3-.691-.182-.749-.813-.316A20.625,20.625,0,0,1,9.568,7.528a7.025,7.025,0,0,0-1.613.851A1.856,1.856,0,0,0,7.221,9.69a47.22,47.22,0,0,0,.712,6.978c.309,2.324.676,4.651.832,6.992-.862.045-1.705.329-2.568.374C5.734,22,4.207,17.33,3.744,15.3c-.337-1.48-.675-2.963-1.149-4.4A49.987,49.987,0,0,0,.7,6.21Q.443,5.634.18,5.06c-.2-.44-.333-.577.16-.781a22.8,22.8,0,0,1,3.025-1c.71-.183,1.432-.32,2.145-.492C6.668,2.5,7.8,2.131,8.931,1.759c1.094-.36,2.19-.722,3.263-1.142" transform="translate(261.459 206.857) rotate(-3)" fill="#bfdbe6"/><path d="M0,1.219.114,0,.63.034l.1.855.25-.1L.762,1.821l-.54.038Z" transform="translate(241.085 221.11) rotate(-3)" fill="#c59b6d"/><path d="M5.355,8.472a1.2,1.2,0,0,0,.081-.664,1.555,1.555,0,0,0-.458-.82A13.2,13.2,0,0,0,3.65,5.98l-.737-.567L2.545,5.13c-.061-.047-.319-.188-.335-.258L1.068,0,0,.13.264,6.275c.041.342,1.761,1.552,2.087,1.8.755.573,1.963,1.757,2.84.671a1.157,1.157,0,0,0,.164-.274" transform="translate(241.049 222.613) rotate(-3)" fill="#ffd64d"/><path d="M0,3.583s3.433,6.568,4.02,6.845,7.223,1.406,7.223,1.406l.188-1.486L5.6,8.07,3.69,2.879,2.764,0Z" transform="translate(244.591 238.117) rotate(-3)" fill="#002d51"/><path d="M.669,3.839C.811,3.921,6.427,8.31,6.427,8.31A4.668,4.668,0,0,0,8,8.512c.723-.07,7.53-3.392,7.53-3.392l-.476-1.465L7.713,5.532s-2.87-2.083-3.448-3.39S3.385-.051,1.689,0-.569,3.131.669,3.839" transform="translate(245.593 235.039) rotate(-3)" fill="#002d51"/><path d="M.2,1.453S.064,2.931.1,3.1s.4.8.706.564A3.463,3.463,0,0,0,1.633,1.7c.017-.682.18-1.353-.2-1.592S.173.1.173.1L0,1.159Z" transform="translate(256.166 247.906) rotate(-3)"/><path d="M.408,1.665S.7,3.12.778,3.272s.608.649.836.336a3.474,3.474,0,0,0,.239-2.12C1.676.83,1.642.14,1.215.02S0,.374,0,.374L.135,1.44Z" transform="translate(260.879 237.755) rotate(-3)"/><path d="M2.932,1.622c-.165-.309-.574-.337-.869-.429-.5-.155-.551-.278-.5-.79A.236.236,0,0,0,1.552.3C1.527.231,1.443.2,1.369.185L.668.007A.126.126,0,0,0,.6,0a.125.125,0,0,0-.059.05A2.772,2.772,0,0,0,0,1.676c.051.613.523.715,1.014.856a3.619,3.619,0,0,0,.87.175,1.218,1.218,0,0,0,.833-.253.74.74,0,0,0,.273-.6.576.576,0,0,0-.063-.229" transform="translate(218.287 238.054) rotate(-3)" fill="#002d51"/><path d="M11.218,9.671q-.244-.195-.468-.411A11.15,11.15,0,0,1,8.368,5.418c-.43-1.036-.9-2.026-1.383-3.038A4.177,4.177,0,0,0,5.278.233,4.9,4.9,0,0,0,2.444.2,2.738,2.738,0,0,0,.511,1.7,7.126,7.126,0,0,0,.087,5.678,38.673,38.673,0,0,0,.82,11.4q.6,2.328.971,4.706A6.8,6.8,0,0,1,1.984,18.2c-.073.435.277,1.259.678.648a15.282,15.282,0,0,1,.961-1.315,14.285,14.285,0,0,1,2.3-2.232c.513-.4,1.053-.757,1.553-1.169.643-.529,1.22-1.14,1.895-1.628a15.192,15.192,0,0,0,2.988-2.1,6.735,6.735,0,0,1-1.139-.736" transform="translate(259.114 196.593) rotate(-3)" fill="#a7d7cb"/><path d="M0,0H121.133V12.612H0Z" transform="translate(163.018 210.433) rotate(-3)" fill="none"/><path d="M121.015,11.786A71.529,71.529,0,0,1,96.957,10.77,70.652,70.652,0,0,1,85.439,7.245c-3.776-1.519-7.429-3.329-11.258-4.72A41.321,41.321,0,0,0,50.6,1.082C42.716,2.951,35.546,6.927,27.693,8.911a62.573,62.573,0,0,1-24.58,1.2Q1.628,9.891.156,9.595C0,9.564-.068,9.8.09,9.832a63.064,63.064,0,0,0,23.949.135A68.8,68.8,0,0,0,35.726,6.581C39.494,5.15,43.2,3.554,47.047,2.33A41.551,41.551,0,0,1,71.47,1.886a105.673,105.673,0,0,1,11.62,4.642,75.574,75.574,0,0,0,11.255,3.882,71.634,71.634,0,0,0,23.73,1.938q1.473-.127,2.94-.317c.157-.02.159-.266,0-.246" transform="translate(163.018 210.433) rotate(-3)" fill="#727f92"/><path d="M0,0H121.133V12.612H0Z" transform="translate(163.018 210.433) rotate(-3)" fill="none"/><path d="M0,0H121.133V12.612H0Z" transform="translate(162.811 206.497) rotate(-3)" fill="none"/><path d="M121.015,11.786A71.529,71.529,0,0,1,96.957,10.77,70.665,70.665,0,0,1,85.439,7.245c-3.776-1.519-7.429-3.329-11.258-4.72A41.321,41.321,0,0,0,50.6,1.082C42.716,2.951,35.546,6.927,27.693,8.911a62.568,62.568,0,0,1-24.58,1.2Q1.628,9.891.156,9.595C0,9.564-.068,9.8.09,9.832a63.064,63.064,0,0,0,23.949.135A68.786,68.786,0,0,0,35.726,6.581C39.494,5.15,43.2,3.554,47.047,2.33A41.552,41.552,0,0,1,71.47,1.886a105.7,105.7,0,0,1,11.62,4.642,75.59,75.59,0,0,0,11.255,3.882,71.634,71.634,0,0,0,23.73,1.938q1.473-.127,2.94-.317c.157-.02.159-.266,0-.246" transform="translate(162.811 206.497) rotate(-3)" fill="#727f92"/><path d="M0,0H121.133V12.612H0Z" transform="translate(162.811 206.497) rotate(-3)" fill="none"/><path d="M0,0H121.133V12.612H0Z" transform="translate(162.605 202.561) rotate(-3)" fill="none"/><path d="M121.015,11.786A71.526,71.526,0,0,1,96.957,10.77,70.652,70.652,0,0,1,85.439,7.245c-3.776-1.519-7.429-3.329-11.258-4.72A41.321,41.321,0,0,0,50.6,1.082C42.716,2.951,35.546,6.927,27.693,8.911a62.573,62.573,0,0,1-24.58,1.2Q1.628,9.891.156,9.595C0,9.564-.068,9.8.09,9.832a63.064,63.064,0,0,0,23.949.135A68.786,68.786,0,0,0,35.726,6.581C39.494,5.15,43.2,3.554,47.047,2.33A41.554,41.554,0,0,1,71.47,1.886a105.726,105.726,0,0,1,11.62,4.642,75.559,75.559,0,0,0,11.255,3.882,71.637,71.637,0,0,0,23.73,1.939q1.473-.128,2.94-.317c.157-.02.159-.266,0-.246" transform="translate(162.605 202.561) rotate(-3)" fill="#727f92"/><path d="M0,0H121.133V12.612H0Z" transform="translate(162.605 202.561) rotate(-3)" fill="none"/><path d="M0,0H121.133V12.612H0Z" transform="translate(162.399 198.625) rotate(-3)" fill="none"/><path d="M121.015,11.786A71.526,71.526,0,0,1,96.957,10.77,70.652,70.652,0,0,1,85.439,7.245c-3.776-1.519-7.429-3.329-11.258-4.72A41.321,41.321,0,0,0,50.6,1.082C42.716,2.951,35.546,6.927,27.693,8.911a62.573,62.573,0,0,1-24.58,1.2Q1.628,9.891.156,9.595C0,9.564-.068,9.8.09,9.832a63.064,63.064,0,0,0,23.949.135A68.8,68.8,0,0,0,35.726,6.581C39.494,5.15,43.2,3.554,47.047,2.33A41.551,41.551,0,0,1,71.47,1.886a105.673,105.673,0,0,1,11.62,4.642,75.574,75.574,0,0,0,11.255,3.882,71.634,71.634,0,0,0,23.73,1.938q1.473-.127,2.94-.317c.157-.02.159-.266,0-.246" transform="translate(162.399 198.625) rotate(-3)" fill="#727f92"/><path d="M0,0H121.133V12.612H0Z" transform="translate(162.399 198.625) rotate(-3)" fill="none"/><path d="M0,0H121.133V12.612H0Z" transform="translate(162.193 194.69) rotate(-3)" fill="none"/><path d="M121.015,11.786A71.526,71.526,0,0,1,96.957,10.77,70.652,70.652,0,0,1,85.439,7.245c-3.776-1.519-7.429-3.329-11.258-4.72A41.322,41.322,0,0,0,50.6,1.082C42.716,2.951,35.546,6.927,27.693,8.911a62.568,62.568,0,0,1-24.58,1.2Q1.628,9.891.156,9.595C0,9.564-.068,9.8.09,9.832a63.064,63.064,0,0,0,23.949.135A68.786,68.786,0,0,0,35.726,6.581C39.494,5.15,43.2,3.554,47.047,2.33A41.551,41.551,0,0,1,71.47,1.886a105.7,105.7,0,0,1,11.62,4.642,75.575,75.575,0,0,0,11.255,3.883,71.634,71.634,0,0,0,23.73,1.938q1.473-.127,2.94-.317c.157-.02.159-.266,0-.246" transform="translate(162.193 194.69) rotate(-3)" fill="#727f92"/><path d="M0,0H121.133V12.612H0Z" transform="translate(162.193 194.69) rotate(-3)" fill="none"/><path d="M7.48,1.427a11.533,11.533,0,0,0-2.218,4.18,28.549,28.549,0,0,1-1.784,4.544,5.978,5.978,0,0,1-1.4,1.763A3.219,3.219,0,0,1,0,12.682a10.534,10.534,0,0,0,3.207,2.886,9.732,9.732,0,0,0,3.309.77q1.54.16,3.087.254c.233.014,3.389.259,3.409.21,1.158-2.681.8-4.385,1.425-7.608a21.354,21.354,0,0,0,.49-5.382C14.807,2.472,14.037.574,12.22.128A5.286,5.286,0,0,0,7.742,1.173q-.135.122-.262.254" transform="translate(165.853 226.149) rotate(-3)" fill="#0075ea"/><path d="M1.015,1.372,1.784.342,1.358,0,.675.591.55.336,0,1.3l.394.415Z" transform="translate(185.78 224.898) rotate(-3)" fill="#f7c6b0"/><path d="M.131,3.207a1.146,1.146,0,0,1,.212-.252,2.118,2.118,0,0,1,1.368-.486,21.051,21.051,0,0,1,2.353.273l2.672.233L11.048,0l.739.863L7.264,5.456c-1.177-.161-2.327-.323-3.505-.409A7.216,7.216,0,0,1,.595,4.56.966.966,0,0,1,.131,3.207" transform="translate(174.872 226.38) rotate(-3)" fill="#0075ea"/><path d="M.984,1.409,1.375.182.862,0,.409.783l-.2-.2L0,1.672l.507.262Z" transform="translate(183.983 219.288) rotate(-3)" fill="#0075ea"/><path d="M.022,6.632a1.153,1.153,0,0,1,.119-.308,2.132,2.132,0,0,1,1.135-.911,21.089,21.089,0,0,1,2.313-.518l2.6-.661L9.3,0l.979.572L7.493,6.4c-1.165.236-2.3.462-3.445.77A7.213,7.213,0,0,1,.9,7.757.96.96,0,0,1,.022,6.632" transform="translate(174.714 221.057) rotate(-3)" fill="#0075ea"/><path d="M7.254,0l1.98,12.065L6.577,23.835l-1.743-.16.084-10.519S-.345,1.256.018,1.031,7.254,0,7.254,0" transform="translate(212.04 243.688) rotate(-3)" fill="#9ca7af"/><path d="M8.656.731,7.1,11.812l-5.488,9.1L0,20.2,3.207,10.21S2.03.105,2.442.008,8.656.731,8.656.731" transform="translate(208.397 246.267) rotate(-3)" fill="#9ca7af"/><path d="M4.382.088c-1.04.35-2.15-.415-3.153.09a2.607,2.607,0,0,0-1.2,1.992A2.29,2.29,0,0,0,.131,3.308a1.73,1.73,0,0,0,.385.563,2.07,2.07,0,0,0,.71.468,5.711,5.711,0,0,1-.363.808L2.4,5.439l.2-1.055A2.15,2.15,0,0,0,3.024,4.2,3.3,3.3,0,0,0,4.517,1.586a6.671,6.671,0,0,0-.135-1.5" transform="translate(213.238 225.152) rotate(-3)" fill="#f7c6b0"/><path d="M.572,5.146C.528,5.07.486,4.993.448,4.915A2.856,2.856,0,0,1,.421,1.905,3.211,3.211,0,0,1,3.626.831,3.285,3.285,0,0,0,5.446,1,.819.819,0,0,0,5.892.683C5.984.537,6.008.355,6.1.212a.57.57,0,0,1,.963.126,1.953,1.953,0,0,0,.1.34c.128.228.442.239.7.273a.335.335,0,0,1,.225.1c.1.119,0,.307-.128.383-.182.105-.5.076-.616.282-.083.149.044.435.023.608A1.81,1.81,0,0,1,6.232,3.677,2.4,2.4,0,0,1,4.72,3.525a4.7,4.7,0,0,0-.45-.152,1.548,1.548,0,0,0-.537.1,2.212,2.212,0,0,1-.667,0,1.424,1.424,0,0,0-.66.059.559.559,0,0,0-.369.511c.015.272.287.483.282.755,0,.236-.213.412-.3.63-.069.169-.071.374-.2.505-.056.059-.131.1-.182.159-.066.083-.087.2-.175.261a.25.25,0,0,1-.311-.076.938.938,0,0,1-.144-.319,4.5,4.5,0,0,0-.436-.821" transform="translate(211.637 222.414) rotate(-3)" fill="#002d51"/><path d="M1.962,3.678A16.181,16.181,0,0,0,.872,6.714a18.735,18.735,0,0,0-.509,9.118c.169.712.547,1.359.73,2.045.109.406-.06,1.059.161,1.409.452.716,1.763.294,2.442.277l4.165-.1a15.093,15.093,0,0,0,3.37-.334c1.041-.265,2.867-.789,2.226-2.12C11.06,12.032,9.143,6.617,9.47,1.093,9.555-.353,6.666-.033,5.837.212a6.192,6.192,0,0,0-3.365,2.57,9.172,9.172,0,0,0-.511.9" transform="translate(207.474 230.39) rotate(-3)" fill="#005467"/><path d="M9.878.148,8,0a.352.352,0,0,0-.377.324L6.416,15.979a.427.427,0,0,1-.5.391,5.457,5.457,0,0,0-2.582.2A5.218,5.218,0,0,0,.665,18.438a3.082,3.082,0,0,0-.538,2.75,3.432,3.432,0,0,0,3.179,2.165,5.516,5.516,0,0,0,2.1-.255,4.517,4.517,0,0,0,3.321-3.511c0-.01,0-.021,0-.032L10.2.527A.353.353,0,0,0,9.878.148" transform="translate(234.384 199.409) rotate(-3)" fill="#0bb"/><path d="M0,5.264a4.084,4.084,0,0,0,2.255.84,5.515,5.515,0,0,0,2.1-.255A4.517,4.517,0,0,0,7.678,2.338c0-.01,0-.021,0-.032L7.86,0A11.423,11.423,0,0,1,0,5.264" transform="translate(236.337 216.58) rotate(-3)" fill="#110e11"/><path d="M8.3,0H6.419a.352.352,0,0,0-.351.353v15.7a.428.428,0,0,1-.465.429,5.457,5.457,0,0,0-2.56.4,5.226,5.226,0,0,0-2.52,2.075A3.082,3.082,0,0,0,.2,21.739a3.427,3.427,0,0,0,3.336,1.91,5.519,5.519,0,0,0,2.076-.418,4.525,4.525,0,0,0,3.041-3.759c0-.01,0-.021,0-.032V.353A.352.352,0,0,0,8.3,0" transform="translate(264.279 186.375) rotate(-3)" fill="#005467"/><path d="M0,5.862a4.082,4.082,0,0,0,2.313.661A5.521,5.521,0,0,0,4.389,6.1,4.525,4.525,0,0,0,7.43,2.346c0-.01,0-.021,0-.032V0A11.441,11.441,0,0,1,0,5.862" transform="translate(266.395 203.413) rotate(-3)" fill="#110e11"/><path d="M0,0H14.933V25.333H0Z" transform="translate(212.577 183.815) rotate(-3)" fill="none"/><path d="M0,0H14.933V25.333H0Z" transform="translate(212.577 183.815) rotate(-3)" fill="none"/><path d="M0,7.107a4.182,4.182,0,0,0,2.557.8,5.729,5.729,0,0,0,2.186-.448,4.9,4.9,0,0,0,3.2-3.9.385.385,0,0,0,.008-.077V0C5.531,4.887,2.129,6.545,0,7.107" transform="translate(214.649 201.16) rotate(-3)" fill="#0075ea"/><path d="M9.812.243l.2.664a.347.347,0,0,1-.137.389L.748,7.442a.342.342,0,0,1-.519-.184L.015,6.566a.347.347,0,0,1,.138-.39L9.293.058a.343.343,0,0,1,.518.185" transform="translate(180.918 190.64) rotate(-3)" fill="#0075ea"/><path d="M14.386.021a.374.374,0,0,0-.334.042S.561,9.094.242,9.3a.628.628,0,0,0-.155.11.379.379,0,0,0-.071.354L4.989,25.91a.346.346,0,0,1-.27.442,5.825,5.825,0,0,0-2.6,1.244C.092,29.27-.525,31.9.748,33.462a3.253,3.253,0,0,0,2.766,1.113,4.9,4.9,0,0,0,1.23-.222,5.962,5.962,0,0,0,2-1.1,4.864,4.864,0,0,0,1.924-4.8c0-.012-.006-.024-.009-.036L4.725,15.66a.347.347,0,0,1,.138-.39L14,9.153a.342.342,0,0,1,.518.185l2.834,9.2a.346.346,0,0,1-.27.442,5.824,5.824,0,0,0-2.6,1.244,5.623,5.623,0,0,0-1.92,2.922,3.292,3.292,0,0,0,.544,2.944A3.253,3.253,0,0,0,15.879,27.2a5.574,5.574,0,0,0,3.227-1.319,4.834,4.834,0,0,0,1.91-4.848l-.005-.018L14.619.265a.375.375,0,0,0-.233-.243" transform="translate(177.206 185.808) rotate(-3)" fill="#0075ea"/><path d="M0,9.488a3.762,3.762,0,0,0,1.529.228,4.9,4.9,0,0,0,1.23-.222,5.961,5.961,0,0,0,2-1.1A4.864,4.864,0,0,0,6.679,3.6a.35.35,0,0,0-.009-.036L5.573,0C4.75,5.541,1.94,8.25,0,9.488" transform="translate(180.488 210.529) rotate(-3)" fill="#0075ea"/><path d="M4.824,7.7a4.834,4.834,0,0,0,1.91-4.848l-.005-.018L5.857,0C4.776,5.3,1.813,7.737,0,8.762a3.732,3.732,0,0,0,1.6.254A5.574,5.574,0,0,0,4.824,7.7" transform="translate(192.42 203.224) rotate(-3)" fill="#0075ea"/><path d="M4.388,8.666c1.938.175,4.245-.72,6.088-.037,2.377.88,1.5,3.916,1.408,5.881a4.258,4.258,0,0,0,1.579.338.5.5,0,0,0,.323-.073.535.535,0,0,0,.152-.275A38.156,38.156,0,0,0,15.5,6.764c.2-2.1-4.254-1.893-5.474-1.868a1.15,1.15,0,0,1-.469-.055,1.167,1.167,0,0,1-.542-.81Q8.52,2.374,8.185.672A.885.885,0,0,0,8.029.26a.841.841,0,0,0-.6-.218A13.966,13.966,0,0,0,1.323.936a1.947,1.947,0,0,0-.948.623,2,2,0,0,0-.27.972C-.032,4.056-.23,6.08.945,7.262a5.626,5.626,0,0,0,3.443,1.4" transform="translate(205.766 224.815) rotate(-3)" fill="#bfdbe6"/><path d="M4.15,2.292C4.156.432,1.957-.95.764.816A4.159,4.159,0,0,0,.02,2.573a2.049,2.049,0,0,0,.553,1.76l.008.007-.217.446a.151.151,0,0,0-.022.1c.01.039.049.061.084.079l.517.264a.617.617,0,0,0,.27.089c.21,0,.364-.205.439-.406.018-.048.034-.1.049-.147A2.709,2.709,0,0,0,4.15,2.292" transform="translate(242.938 221.036) rotate(-3)" fill="#c59b6d"/><path d="M1.269,2.33A2.282,2.282,0,0,0,.692,3.758c0,.322-.07.6-.043.93A1.812,1.812,0,0,1,.084,3.634,2.607,2.607,0,0,1,.1,2.272a3.686,3.686,0,0,1,.67-1.1A2.633,2.633,0,0,1,2.168.064a1.057,1.057,0,0,1,1.3.4,1.072,1.072,0,0,1,.066.579.9.9,0,0,1-.079.342c-.218.415-.622.281-.981.336a2.3,2.3,0,0,0-1.2.609" transform="translate(242.268 220.099) rotate(-3)" fill="#002d51"/><path d="M1.57,4.745a4.346,4.346,0,0,1-.522,1.142C.723,6.4.567,6.376.694,7.051A2.345,2.345,0,0,0,2.152,8.7a6.224,6.224,0,0,1,2.319,1.24,5.979,5.979,0,0,0,1.4,1.507,1.868,1.868,0,0,0,.983.35,1.557,1.557,0,0,0,.7-.249,1.825,1.825,0,0,0,.979-1.176c-.648-.111-1.029-.788-1.59-1.134A1.709,1.709,0,0,0,5.843,9,.284.284,0,0,1,5.7,9c-.094-.038-.247-.379-.3-.473A4.079,4.079,0,0,1,5.106,7.9,10.24,10.24,0,0,1,4.738,6.61L4.5,5.6c-.224-.945-.19-1.84-.321-2.79A3.142,3.142,0,0,0,1.877.043,1.422,1.422,0,0,0,.007,1.569c.07.881,1.019,1.318,1.414,2.014A1.4,1.4,0,0,1,1.57,4.745" transform="translate(244.748 219.263) rotate(-3)" fill="#002d51"/><path d="M.208,1.568,0,.106.615,0,.977.973,1.242.786l.027,1.27-.623.2Z" transform="translate(236.491 219.833) rotate(-3)" fill="#c59b6d"/><path d="M8.611,8.708a1.441,1.441,0,0,0-.091-.8,1.866,1.866,0,0,0-.766-.831,15.875,15.875,0,0,0-1.839-.8L4.893,5.818l-.511-.227c-.085-.038-.426-.129-.465-.207L1.215,0,0,.456,2.031,7.582C2.174,7.971,4.528,8.9,4.98,9.1c1.045.457,2.792,1.5,3.516-.021a1.4,1.4,0,0,0,.115-.368" transform="translate(236.765 221.447) rotate(-3)" fill="#ffd64d"/><path d="M3.019,18.365a.276.276,0,0,0,.143.128.275.275,0,0,0,.178-.037,27.538,27.538,0,0,0,6.668-4.332,6.53,6.53,0,0,0,2.232-2.742c.4-1.207,1.55-1.516,2.366-2.39,1.018-1.091,1.081-2.959,2.338-3.758.772-.491,1.935-.539,2.282-1.39-.643.118-1.317-.208-1.948-.037s-1.036.792-1.453,1.311a5.424,5.424,0,0,1-5.667,2.006A5.55,5.55,0,0,1,7.374,4.89,12.538,12.538,0,0,1,5.9,1.57C5.718,1,5.478.313,4.891.093A4.81,4.81,0,0,0,2.773.186c-.853.154-.881.2-1.21.891A16.855,16.855,0,0,0,.314,4.928,18.421,18.421,0,0,0,.044,9.6a17.807,17.807,0,0,0,2.975,8.768" transform="translate(240.311 226.136) rotate(-3)" fill="#ffd64d"/><path d="M.187,12.406a14.132,14.132,0,0,0-.109,3.755c3.241-.548,8.107-1.84,11.26-.785a77.13,77.13,0,0,0,.719-11.844A8.688,8.688,0,0,0,12.093.817c-.25-.6-1.151-.7-1.728-.775a6.584,6.584,0,0,0-4.734,1.4,13.759,13.759,0,0,0-3.9,5.831A22.865,22.865,0,0,0,.187,12.406" transform="translate(204.007 212.702) rotate(-3)" fill="#c3d7a0"/><path d="M.175,1.351c-.041-.069-.1-.126-.137-.2A.228.228,0,0,1,.025.927C.1.807.284.854.413.914q0-.289,0-.577A.365.365,0,0,1,.47.092.3.3,0,0,1,.663.008,1.748,1.748,0,0,1,1.2.049.264.264,0,0,1,1.36.122c.067.083.015.208.034.313s.111.2.085.3a.3.3,0,0,1-.068.11,3.024,3.024,0,0,0-.507.89.26.26,0,0,1-.078.131.247.247,0,0,1-.168.025C.151,1.848.375,1.721.175,1.351" transform="translate(219.049 206.643) rotate(-3)" fill="#f7c6b0"/><path d="M.984,6.656,6.6,5.475,7.754.14,8.944,0l-.4,6.656-.366.584-7.2,3.1s-2.213-1.3,0-3.684" transform="translate(211.392 208.524) rotate(-3)" fill="#c3d7a0"/><path d="M4.573.99Q4.535.912,4.489.837a1.826,1.826,0,0,0-1.27-.8A2.827,2.827,0,0,0,.729.85,3.157,3.157,0,0,0,.08,3.5c.143.481.466.625.77.955a2.8,2.8,0,0,1,.687,1.263l.971-.088a1.77,1.77,0,0,0,.249-.023c.093-.023.083-.014.091-.118a1.706,1.706,0,0,1,.086-.45,1.638,1.638,0,0,1,.44-.565c.2-.209.437-.381.638-.589a2.731,2.731,0,0,0,.56-2.9" transform="translate(210.7 207.096) rotate(-3)" fill="#f7c6b0"/><path d="M1.629,5.584a.607.607,0,0,0,.295.058c.449.012.979-.016,1.225-.395.156-.24.153-.573.354-.777a1.241,1.241,0,0,1,.323-.2A2.46,2.46,0,0,0,4.869,3.225c.157-.307.148-.343.47-.487A3.578,3.578,0,0,0,6.1,2.274a1.065,1.065,0,0,0,.289-.314.452.452,0,0,0,.023-.414c-.03-.058-.076-.106-.1-.166-.093-.213.094-.437.264-.593s.357-.382.262-.594A.391.391,0,0,0,6.428,0,1.605,1.605,0,0,0,5.976.17a4.233,4.233,0,0,1-2.6-.03A3.413,3.413,0,0,0,.838.867a2.087,2.087,0,0,0-.622.651,1.858,1.858,0,0,0-.192.665A3.412,3.412,0,0,0,.4,4.175,2.853,2.853,0,0,0,1.011,5a5.646,5.646,0,0,0,.618.589" transform="translate(209.822 206.181) rotate(-3)" fill="#002d51"/><path d="M3.347.021a3.078,3.078,0,0,0-1.941.95A3.969,3.969,0,0,0,.669,4.521c-.11.077-.118.2-.17.427C.368,5.524.157,6.074.043,6.657a1.111,1.111,0,0,0,.006.627.937.937,0,0,0,1.006.426A3.8,3.8,0,0,0,4.041,5.225a1.3,1.3,0,0,0,.092-.383l.011-.006a1.477,1.477,0,0,0,.4-.472A17.416,17.416,0,0,0,6.188,1,4.337,4.337,0,0,0,3.347.021" transform="translate(208.373 205.391) rotate(-3)" fill="#bfdbe6"/><path d="M.966,0A.481.481,0,0,1,1.38.151a.647.647,0,0,0,.134.155c.1.061.226.01.342.014a.371.371,0,0,1,.309.491l.288.037a.333.333,0,0,1,.031.444,1.147,1.147,0,0,1-.385.3,3.762,3.762,0,0,0-.726.562c-.143.142-.315.309-.512.267A.56.56,0,0,1,.574,2.2C.18,1.723-.136,1.477.06.886A1.31,1.31,0,0,1,.966,0" transform="translate(218.058 228.836) rotate(-3)" fill="#f7c6b0"/><path d="M2.883,0,0,4.66A1.765,1.765,0,0,0,2.618,6.192L5.064,1.075Z" transform="translate(214.999 229.984) rotate(-3)" fill="#005467"/><path d="M.606,1.854A5.941,5.941,0,0,0,1.81,2.87,10.222,10.222,0,0,1,1,.214.268.268,0,0,0,.918.026.247.247,0,0,0,.727.012C-.421.252-.012,1.173.606,1.854" transform="translate(174.054 221.942) rotate(-3)" fill="#56453f"/><path d="M1.548.03c-2.805.391-1.157,3.782-.038,5a2.037,2.037,0,0,0,.809.579,8.046,8.046,0,0,1,.034,1.04L3.6,6.306a.18.18,0,0,0,.161-.265l-.2-.76a1.71,1.71,0,0,0,.188-.238C4.478,3.921,4.638-.4,1.548.03" transform="translate(174.222 219.797) rotate(-3)" fill="#f7c6b0"/><path d="M.994,4.691c.273.163.613-.066.814-.313A3.131,3.131,0,0,0,1.936.712C1.3-.185-.253-.372.035.96c.1.472.628.955.779,1.462a7.671,7.671,0,0,1,.18,2.27" transform="translate(176.832 219.003) rotate(-3)"/><path d="M1.469,1.253C.565,2.52.723,4.284,0,5.664A4.577,4.577,0,0,0,3.268,4.2C4.086,3.317,6.361,1.931,5.388.672,4.4-.609,2.261.143,1.469,1.253" transform="translate(171.199 218.65) rotate(-3)"/><path d="M.427.546C.445.559.465.575.467.6.47.646.4.65.352.66A.158.158,0,0,0,.236.826a.191.191,0,0,0,.133.16C.214,1,.02,1.055,0,1.211a.3.3,0,0,0,.169.263,1.237,1.237,0,0,0,.6.163.328.328,0,0,0,.156-.02.333.333,0,0,0,.12-.119A1.213,1.213,0,0,0,1.3.727.909.909,0,0,0,.713.016C.325-.08.068.286.427.546" transform="translate(272.957 197.237) rotate(-3)" fill="#f7c6b0"/><path d="M.333,1.584a.191.191,0,0,0,.1.115q.265.171.545.317a.469.469,0,0,0,.256.073c.167-.017.284-.2.452-.208a.125.125,0,0,0,.1-.126.365.365,0,0,0-.051-.17l-.177-.362c.1-.027.217-.074.233-.177.02-.128-.134-.21-.261-.227S1.252.79,1.192.675A3.867,3.867,0,0,0,.81.084.267.267,0,0,0,.532.011.788.788,0,0,0,.269.163C-.057.413-.049.418.1.781a3.208,3.208,0,0,1,.238.8" transform="translate(257.275 205.768) rotate(-3)" fill="#f7c6b0"/><path d="M4.675.464C4.553.448.36,3.169.36,3.169S-.2,3.6.08,5.161a16.4,16.4,0,0,0,1.87,4.1l1.423-.572a31.974,31.974,0,0,1-1.017-4.3c.122-.369,3.39-1.423,3.39-1.423L5.924,0Z" transform="translate(254.776 197.516) rotate(-3)" fill="#a7d7cb"/><path d="M4.981,2.067A2.432,2.432,0,0,0,1.976.077,2.428,2.428,0,0,0,.081,3.112,2.259,2.259,0,0,0,2.568,5.057c.049.157.1.307.145.442a.735.735,0,0,0,1.413-.33,3.147,3.147,0,0,0-.055-.616,2.228,2.228,0,0,0,.7-.675,2.4,2.4,0,0,0,.207-1.812" transform="translate(257.695 191.856) rotate(-3)" fill="#f7c6b0"/><path d="M1.543,2.082a5.167,5.167,0,0,1,.449,1.68,2.023,2.023,0,0,0,.223-.991,2.638,2.638,0,0,0-.25-1.444A3.9,3.9,0,0,0,1.057.121.372.372,0,0,0,.736.009.632.632,0,0,0,.53.164C.419.259.274.305.159.394A.531.531,0,0,0,.02.939c.043.182.185.19.349.209a1.671,1.671,0,0,1,1.174.933" transform="translate(260.705 191.066) rotate(-3)" fill="#002d51"/><path d="M1.342,5.391A1.967,1.967,0,0,1,1.4,4.2a2.013,2.013,0,0,1,.383-.574,3.179,3.179,0,0,1,.725-.589,13.034,13.034,0,0,1,1.269-.576,4.322,4.322,0,0,0,1.311-.887A2.747,2.747,0,0,0,5.841.188l-.356,0L5.6,0,4.613.193A.25.25,0,0,0,4.74.047a3.738,3.738,0,0,1-.726.185q-.4.11-.785.239-.762.252-1.5.576A2.462,2.462,0,0,0,.6,1.754a3.437,3.437,0,0,0-.53,1.262,1.5,1.5,0,0,0-.04.718A1.643,1.643,0,0,0,.2,4.106L1.01,5.584c.072.132.425.857.611.818.159-.034-.247-.872-.279-1.011" transform="translate(256.588 189.887) rotate(-3)" fill="#002d51"/><path d="M.852,1.651A2.47,2.47,0,0,0,1.5,1.415l.469-.223a.565.565,0,0,0,.3-.24A.536.536,0,0,0,2.3.7C2.279.423,2.2.1,1.947,0a1.629,1.629,0,0,0-.02.409.845.845,0,0,1-.376.616,1.575,1.575,0,0,1-.7.243A.6.6,0,0,1,.33,1.134C.206,1.025.125.849.03,1.078c-.186.449.538.62.822.573" transform="translate(259.798 195.271) rotate(-3)" fill="#002d51"/></g></svg>